<?xml version="1.0" encoding="UTF-8"?>
<svg width="208px" height="308px" viewBox="0 0 208 308" version="1.1" xmlns="http://www.w3.org/2000/svg" xmlns:xlink="http://www.w3.org/1999/xlink">
    <!-- Generator: Sketch 57.1 (83088) - https://sketch.com -->
    <title>noun_Sign Language_2029097</title>
    <desc>Created with Sketch.</desc>
    <g id="Gestures" stroke="none" stroke-width="1" fill="none" fill-rule="evenodd">
        <g id="Desktop" transform="translate(-714.000000, -84.000000)">
            <g id="noun_Sign-Language_2029097" transform="translate(714.000000, 84.000000)">
                <g id="Group">
                    <path d="M102.199956,14.172951 C115.653008,9.12292162 136.225267,9.4282686 145.743592,9.63464779 C143.46569,7.18587988 139.520198,4.9176038 137.307821,4.9176038 C136.755543,4.9176038 135.965512,4.9002704 134.983114,4.87874399 C128.431162,4.73490991 113.091014,4.39618187 103.548352,7.97838019 C93.4463915,11.7705894 78.0917357,26.2521305 71.641579,36.2494747 C81.3447742,26.5492594 92.9100295,17.6602834 102.199956,14.172951 Z" id="Path"></path>
                    <path d="M199.067646,134.42033 C193.907152,131.539949 182.358043,130.563584 165.413955,136.463487 C158.05793,139.012163 144.436384,147.942369 128.972676,160.352639 L128.741001,160.538168 C126.38634,162.423906 120.751726,162.189187 116.211368,161.120053 C109.644695,159.588279 103.688018,156.119912 99.1114249,151.163349 C92.3034651,143.666763 93.3527867,116.879912 93.6977265,108.077138 C94.4330017,89.3066581 96.686097,69.881434 97.4751934,63.4897143 C97.4705792,63.3844403 97.4730819,63.2789743 97.4826842,63.1740383 C97.55593,62.587471 97.658195,62.0130798 97.7754371,61.4458369 C100.671137,45.7443231 118.039041,33.4501433 124.368664,33.4501433 L151.686636,33.4501433 C157.929689,33.4501433 164.387097,30.6686202 164.387097,26.0140062 C164.387097,24.0467498 162.223863,21.1513771 158.875576,18.637838 C155.630258,16.201606 151.787281,14.4999875 149.529954,14.4999875 C148.778767,14.4999875 147.740205,14.4770315 146.425041,14.4479826 C144.305804,14.4011349 141.505113,14.3397604 138.293492,14.3397604 C128.094648,14.3397604 113.747192,14.9624049 103.882993,18.6650111 C88.6284933,24.3911005 65.8911314,46.6868607 58.667555,60.2454429 C55.26872,66.6246314 43.0208461,102.19131 28.8830621,146.737859 C14.6989478,191.429153 4.79262673,225.827375 4.79262673,230.387838 L4.79262673,302.822242 L74.0460829,302.598294 L74.0460829,280.56394 C74.0119163,279.502775 73.7896007,266.969756 82.0245891,262.573286 C88.8999476,258.903006 90.5324361,257.728461 95.6456656,251.214347 C96.8190157,249.719343 98.5713198,247.210486 100.789314,244.034013 C108.348,233.211042 120.998862,215.096233 135.205895,201.997257 C149.763499,188.57548 153.779197,185.836123 161.069698,180.863391 C162.921694,179.599828 165.021276,178.167604 167.557999,176.375097 C199.082623,154.099951 204.175259,145.898276 202.545579,138.556304 C202.176772,136.894045 201.00623,135.50258 199.067646,134.42033 Z M86.8083255,75.9427396 C87.2240122,75.1935416 88.0074082,74.723246 88.863416,74.7086764 C89.7194237,74.6947717 90.5179952,75.1387558 90.9583163,75.8737166 C91.3986374,76.6086775 91.4138128,77.5229571 90.9981261,78.2721551 C89.0118076,81.8515469 85.5483871,105.806755 85.5483871,115.967277 C85.5483871,117.292072 84.4755211,118.366031 83.1520737,118.366031 C81.8286264,118.366031 80.7557604,117.292072 80.7557604,115.967277 C80.7557604,106.343198 84.0848579,80.8503454 86.8083255,75.9427396 Z M99.9262673,179.774131 C95.1322363,179.774131 84.7138901,187.546189 74.0765065,202.40066 C74.0226806,202.475856 73.9707285,202.551402 73.9169121,202.626714 L73.9141036,202.630931 C63.1901268,217.677801 56.7926267,233.68634 56.7926267,245.499988 C56.7926267,246.824783 55.7197607,247.898741 54.3963134,247.898741 C53.072866,247.898741 52,246.824783 52,245.499988 C52,232.889196 58.5606267,216.113261 69.5820147,200.455419 C69.8183679,191.577454 68.6623336,180.837407 67.3775934,173.979643 C67.2197462,173.137381 67.5227738,172.274802 68.1725285,171.716832 C68.8222833,171.158862 69.7200521,170.99027 70.5276541,171.274562 C71.335256,171.558854 71.9299972,172.252841 72.0878444,173.095103 C73.3296901,180.051172 74.0813281,187.08605 74.3371967,194.14768 C82.2216284,184.389487 92.3982393,174.976623 99.9262673,174.976623 C101.249715,174.976623 102.322581,176.050582 102.322581,177.375377 C102.322581,178.700172 101.249715,179.774131 99.9262673,179.774131 Z" id="Shape"></path>
                    <path d="M207.224007,137.515283 C206.555191,134.502319 204.541727,131.983157 201.401713,130.230009 C193.542088,125.842443 179.500722,126.478674 163.842779,131.931152 C152.537984,135.848317 133.59447,150.494322 125.974941,156.609273 L125.788196,156.759195 C124.016703,157.707922 111.371017,157.530356 102.65816,147.936276 C96.0392793,140.64819 97.7110817,100.273224 102.303861,63.4921755 C102.352535,63.1026178 102.416655,62.7165624 102.486858,62.3319174 C104.80033,51.3714399 117.267711,43.0451397 120.262168,43.0451397 L143.064121,43.0451397 C148.28078,43.0451397 154.076618,41.4269403 156.254388,37.8513961 C158.747652,37.4454845 161.147064,36.5916802 163.33685,35.3311789 C167.104947,33.084223 169.179724,29.7751612 169.179724,26.0140062 C169.179724,18.8412907 158.71855,11.2951708 151.636793,9.92361607 C149.445944,4.85575913 142.002396,0.120096012 137.307821,0.120096012 C136.780819,0.120096012 136.026354,0.103227974 135.088423,0.082617881 C128.260334,-0.0701155769 112.272898,-0.420559128 101.865316,3.48631533 C89.5140029,8.1231066 71.8159204,25.4503758 65.9917574,36.382975 C64.9244155,38.3850229 63.2275716,42.5297818 61.327137,47.7716683 C58.7397955,50.9711332 56.4349033,54.3894709 54.4384358,57.9881579 C50.3085382,65.7391314 36.3336317,107.41795 24.3150946,145.285466 C20.2549346,158.078975 0,222.307957 0,230.387838 L0,305.22896 C0,305.865164 0.252402504,306.475325 0.701809182,306.925189 C1.15121586,307.375054 1.76075635,307.627713 2.39631336,307.627713 L2.40426912,307.627713 L76.4503521,307.387838 C77.7707068,307.383487 78.8387538,306.310791 78.8387097,304.989084 L78.8387097,280.521794 C78.8387097,280.49228 78.8382304,280.459014 78.8368358,280.4295 C78.8330927,280.324554 78.5176468,269.882947 84.2795583,266.806732 C91.5658463,262.916721 93.8357924,261.285381 99.4142422,254.178137 C100.670433,252.578168 102.456439,250.020617 104.71749,246.782779 C112.164316,236.119569 124.628419,218.272279 138.453091,205.526088 C152.752339,192.342311 156.665073,189.673227 163.768359,184.827931 C165.635801,183.554063 167.7527,182.110143 170.322185,180.29466 C201.058647,158.576064 209.680698,148.580941 207.224007,137.515283 Z M103.548352,7.9783562 C113.091014,4.39615788 128.431162,4.73488592 134.983114,4.87872 C135.965512,4.9002704 136.755543,4.91757981 137.307821,4.91757981 C139.520198,4.91757981 143.46569,7.18584149 145.743592,9.6346238 C136.225267,9.42824461 115.653008,9.12289763 102.199956,14.172927 C92.9100295,17.6602355 81.3447742,26.5492354 71.641579,36.2494267 C78.0917357,26.2521065 93.4463915,11.7705654 103.548352,7.9783562 Z M167.557999,176.375097 C165.021262,178.167604 162.921694,179.599828 161.069698,180.863391 C153.779197,185.836123 149.763499,188.57548 135.205895,201.997257 C120.998848,215.096233 108.348015,233.211042 100.789314,244.034013 C98.5713198,247.210486 96.8190157,249.719343 95.6456656,251.214347 C90.5324122,257.728461 88.8999476,258.903006 82.0245891,262.573286 C73.7896007,266.969756 74.0119163,279.502775 74.0460829,280.56394 L74.0460829,302.598275 L4.79262673,302.822223 L4.79262673,230.387838 C4.79262673,225.827394 14.6989478,191.429196 28.8830621,146.737859 C43.0208317,102.19131 55.26872,66.6246314 58.667555,60.2454429 C65.8911314,46.6868607 88.6284933,24.3911005 103.882993,18.6650111 C113.747177,14.9624049 128.094648,14.3397604 138.293492,14.3397604 C141.505113,14.3397604 144.305804,14.4011349 146.425041,14.4479826 C147.740205,14.4770315 148.778767,14.4999875 149.529954,14.4999875 C151.787281,14.4999875 155.630258,16.201606 158.875576,18.637838 C162.223863,21.1513771 164.387097,24.0467498 164.387097,26.0140062 C164.387097,30.6686202 157.929689,33.4501433 151.686636,33.4501433 L124.368664,33.4501433 C118.039041,33.4501433 100.671137,45.7443423 97.7754371,61.4458753 C97.658195,62.0131182 97.5559347,62.5875094 97.4826842,63.1740767 C97.4730819,63.2790127 97.4705792,63.3844786 97.4751934,63.4897527 C96.686097,69.8814723 94.4330017,89.3066965 93.6977265,108.077176 C93.3527867,116.87995 92.3034651,143.666816 99.1114249,151.163387 C103.688018,156.11995 109.644695,159.588317 116.211368,161.120092 C120.751726,162.189226 126.38634,162.423944 128.741001,160.538207 L128.972676,160.352678 C144.436384,147.942408 158.05793,139.012202 165.413955,136.463526 C182.358043,130.563623 193.907152,131.539988 199.067646,134.420368 C201.00623,135.502619 202.176772,136.894083 202.545579,138.556343 C204.175259,145.898276 199.082623,154.099951 167.557999,176.375097 Z" id="Shape" fill="#FFFFFF" fill-rule="nonzero"></path>
                    <path d="M99.9262673,174.976623 C92.3982393,174.976623 82.2216284,184.389506 74.3371967,194.14768 C74.0813281,187.08605 73.3296901,180.051172 72.0878444,173.095103 C71.9299972,172.252841 71.335256,171.558854 70.5276541,171.274562 C69.7200521,170.99027 68.8222833,171.158862 68.1725285,171.716832 C67.5227738,172.274802 67.2197462,173.137381 67.3775934,173.979643 C68.6623336,180.837407 69.8183679,191.577454 69.5820147,200.455419 C58.5606267,216.113242 52,232.889177 52,245.499988 C52,246.824783 53.072866,247.898741 54.3963134,247.898741 C55.7197607,247.898741 56.7926267,246.824783 56.7926267,245.499988 C56.7926267,233.68636 63.1901268,217.677839 73.9140988,202.630931 L73.9169073,202.626714 C73.9707285,202.551393 74.0226806,202.475856 74.0765018,202.40066 C84.7138901,187.54617 95.1322363,179.774131 99.9262673,179.774131 C101.249715,179.774131 102.322581,178.700172 102.322581,177.375377 C102.322581,176.050582 101.249715,174.976623 99.9262673,174.976623 Z" id="Path" fill="#FFFFFF" fill-rule="nonzero"></path>
                    <path d="M83.1520737,118.366031 C83.7876304,118.366031 84.3971701,118.11337 84.8465765,117.663506 C85.2959829,117.213642 85.5484354,116.603481 85.5483871,115.967277 C85.5483871,105.806775 89.0118076,81.8515661 90.9981261,78.2721743 C91.4138127,77.5229763 91.3986373,76.6086967 90.9583162,75.8737359 C90.5179952,75.138775 89.7194237,74.6947909 88.8634159,74.7086957 C88.0074082,74.7232653 87.2240122,75.1935608 86.8083255,75.9427588 C84.0848579,80.8503454 80.7557604,106.343198 80.7557604,115.967277 C80.7557604,116.603481 81.0081646,117.213642 81.457571,117.663506 C81.9069774,118.11337 82.5165171,118.366031 83.1520737,118.366031 Z" id="Path" fill="#FFFFFF" fill-rule="nonzero"></path>
                </g>
            </g>
        </g>
    </g>
</svg>