<?xml version="1.0" encoding="UTF-8"?>
<svg width="168px" height="321px" viewBox="0 0 168 321" version="1.1" xmlns="http://www.w3.org/2000/svg" xmlns:xlink="http://www.w3.org/1999/xlink">
    <!-- Generator: Sketch 57.1 (83088) - https://sketch.com -->
    <title>noun_Sign language a_653146</title>
    <desc>Created with Sketch.</desc>
    <g id="Gestures" stroke="none" stroke-width="1" fill="none" fill-rule="evenodd" stroke-linecap="round" stroke-linejoin="round">
        <g id="Desktop" transform="translate(-88.000000, -78.000000)" stroke="#FFFFFF" stroke-width="5">
            <g id="noun_Sign-language-a_653146" transform="translate(91.000000, 81.000000)">
                <path d="M8.18650088,315 C8.18650088,315 11.0027405,234.774309 12.1292364,223.963754 C13.2557322,213.1532 10.4394926,201.77367 12.1292364,186.98028 C12.1292364,186.98028 13.5305972,179.583585 10.2953011,166.497124 C7.06000503,153.410664 -2.51520971,136.910345 0.864277846,94.2371045 C0.864277846,94.2371045 0.566882941,84.9423039 0.152332468,81.5284447 C-0.262218005,78.1145855 0.111778617,72.8026205 1.9907737,69.0109609 C3.86976878,65.2193013 6.4967571,54.217571 15.5087239,48.9056061 C24.5206907,43.5936411 35.2854851,35.1727884 44.7976161,40.9399346 C44.7976161,40.9399346 48.1771036,42.0778877 50.0560987,55.7333245 C51.9350938,69.3887613 53.0615896,71.6646675 53.8095829,75.0785267 C53.8095829,75.0785267 56.8150738,89.4941161 58.3155663,97.0774354 C59.8160587,104.665306 64.2454404,121.35225 75.1769562,119.836497 C75.1769562,119.836497 83.8915281,119.786427 85,108.812007" id="Path"></path>
                <path d="M23,60 C23,60 24.3599004,65.2573414 27.5433035,72.0148496 C30.7267067,78.7723578 34.404619,84.4036147 37.7160648,93.4136256 C41.0275105,102.423637 46.5465867,117.064904 57.584739,115.938653 C57.584739,115.938653 61.2626514,115.938653 62,111.433648" id="Path"></path>
                <path d="M71.6762144,23.5052377 C71.6762144,23.5052377 77.9703946,9.55236348 85.9051516,8.4223931 C93.8399087,7.29242272 99.0161333,8.15120021 104.442307,14.4473952 C109.868481,20.7435901 107.473512,39.6412148 107.473512,39.6412148 C107.473512,39.6412148 106.714575,52.1115679 107.473512,64.9209121 C108.232449,77.7302563 107.137216,99.1951737 107.137216,99.1951737 C107.137216,99.1951737 107.741639,110.870028 94.9760423,112 C94.9760423,112 84.7508399,112.031637 82.855769,104.090205 C81.0743116,96.6143213 80.2063055,91.552054 79.4473682,85.2558591 C78.7656881,79.5969674 77.175101,66.0463626 76.7979047,52.1115679 C76.4207083,38.1767731 77.9340383,34.0320418 75.2845747,27.2522195 C74.6165282,25.5617838 73.339514,24.3368959 71.6762144,23.5052377 C66.6863157,21.014783 58.2380262,22.0769552 52.5573583,24.6171286 C44.9816194,28.0070397 44,40.8796623 44,40.8796623" id="Path"></path>
                <path d="M106,17.7008848 C106,17.7008848 112.113048,8.9590475 120.248284,10.103267 C128.38352,11.2474866 138.066774,19.2570234 136.904598,36.4203166 C135.742421,53.5836098 131.870049,60.4489271 131.479558,75.3237812 C131.089067,90.1986352 123.344322,98.588053 116.371263,98.9725107 C109.398204,99.3523916 107.501532,95.7595422 107.101743,90.395441" id="Path"></path>
                <path d="M93.5118879,294 C93.5118879,294 92.3601401,241.500817 93.5118879,225.256574 C94.6636357,209.016863 93.8942682,201.461295 95.4330032,190.887127 C96.9671312,180.312958 96.9671312,185.366622 97.3541184,176.038873 C97.7411057,166.711124 104.264605,159.536281 107.719848,157.646256 C111.175092,155.756231 119.619706,147.824471 126.147813,138.007219 C132.675919,128.185435 142.654662,119.501291 148.03102,114.211941 C153.407379,108.92259 153.407379,108.546398 155.323887,93.4397956 C157.245002,78.333193 159.161511,57.4839967 160.700246,53.5543764 C162.234374,49.6247561 162.621361,47.2724229 160.700246,38.6290712 C158.77913,29.9857196 157.627382,23.1870686 158.39675,16.0076931 C159.166118,8.83285012 161.082626,0.901090618 155.710874,0.14417414 C150.334516,-0.612742338 138.803217,0.561158068 134.9702,30.3619116 C134.9702,30.3619116 134.210047,48.8678396 146.114512,50.0009481" id="Path"></path>
                <path d="M29,78.8168889 C29,78.8168889 16.1903276,79.6408889 8,78.8168889" id="Path"></path>
                <path d="M27,72 C27,72 18.238575,68.1731873 15,64" id="Path"></path>
            </g>
        </g>
    </g>
</svg>