<?xml version="1.0" encoding="UTF-8"?>
<svg width="134px" height="315px" viewBox="0 0 134 315" version="1.1" xmlns="http://www.w3.org/2000/svg" xmlns:xlink="http://www.w3.org/1999/xlink">
    <!-- Generator: Sketch 57.1 (83088) - https://sketch.com -->
    <title>noun_Sign Language_2029098</title>
    <desc>Created with Sketch.</desc>
    <g id="Gestures" stroke="none" stroke-width="1" fill="none" fill-rule="evenodd">
        <g id="Desktop" transform="translate(-428.000000, -65.000000)">
            <g id="noun_Sign-Language_2029098" transform="translate(428.000000, 65.000000)">
                <g id="Group">
                    <path d="M101.908096,148.161979 L101.828244,148.126884 C91.5325787,143.376359 78.0486296,143.376359 67.2140575,143.376359 C58.6112019,143.376359 55.7281169,146.168735 55.6562065,147.18981 C55.8221824,148.124783 57.9665206,151.924021 64.0822121,155.797237 C64.2623845,155.877618 64.4306409,155.982393 64.5822504,156.108616 C65.57561,156.717165 66.6680567,157.324875 67.8675323,157.922554 C68.1153798,157.991782 68.3485627,158.105507 68.5556929,158.258174 C69.4758862,158.698284 70.4567048,159.129757 71.4981488,159.552593 C71.5566764,159.573072 71.614793,159.596479 71.6720705,159.622809 C73.9109011,160.512261 76.1982503,161.274443 78.5231652,161.905703 C80.8801901,162.439453 83.3133343,162.550262 85.7091399,162.232961 C86.1068233,162.027065 86.5591791,161.951329 87.0022656,162.016458 C89.3669361,161.531646 91.6308239,160.644672 93.6953259,159.394169 C94.7089809,158.786161 96.0237429,159.114762 96.6319293,160.128119 C97.2401156,161.141476 96.9114184,162.455851 95.8977636,163.063859 C94.1681313,164.106647 92.3224507,164.94365 90.3983265,165.557816 C94.4248638,170.85 101.315688,179.165276 102.820769,180.147062 C103.868946,180.660241 104.312725,181.918243 103.818447,182.975226 C103.324168,184.03221 102.074033,184.49855 101.007967,184.023625 C98.3728035,182.849578 88.9053567,170.690343 85.8031968,166.539597 C83.0408197,166.847945 80.2462334,166.689416 77.5364799,166.070649 C77.5047052,166.063545 77.4733501,166.055601 77.4424102,166.047243 C75.441472,165.500135 73.5769697,164.908586 71.8489035,164.272594 C69.2806415,170.213451 65.5739275,184.220063 65.5212479,186.046113 C65.4995471,186.810631 65.0713661,187.505453 64.398098,187.868682 C63.72483,188.231911 62.9088373,188.208321 62.2576901,187.806805 C61.6065429,187.405289 61.2192404,186.686893 61.2417674,185.922399 C61.3157714,183.372011 65.0935525,169.254644 67.8917679,162.668465 L67.8545561,162.651748 C60.6648182,171.853086 45.9734478,200.211556 44.8914556,204.656959 C44.6118353,205.805349 43.4539311,206.509691 42.3052042,206.230153 C41.1564773,205.950615 40.4519273,204.793052 40.7315476,203.644662 C41.9393842,198.683083 56.0805583,171.209442 63.9597155,160.701556 C63.6912874,160.551926 63.4291697,160.402297 63.1707937,160.251414 C56.1395098,164.657532 39.5019713,180.010388 37.6741214,182.751359 C37.2503748,183.388557 36.5185478,183.751076 35.7547241,183.702156 C34.9909004,183.653236 34.3113297,183.200322 33.9723819,182.514276 C33.633434,181.82823 33.6866949,181.013466 34.1120718,180.377354 C36.0929599,177.40693 51.0481177,163.475965 59.2997906,157.697692 C53.5068507,153.361379 51.3738019,149.062678 51.3738019,147.228261 C51.3738019,144.208096 54.7101022,139.096467 67.2140575,139.096467 C78.4675445,139.096467 92.4732716,139.096467 103.603834,144.232337 C107.355199,145.861943 110.849462,148.028477 113.976842,150.663875 C113.838039,149.205203 113.695892,147.677983 113.550401,146.114402 C112.776952,137.807484 111.900652,128.391723 110.950771,123.17059 C109.311476,114.156488 94.4980287,53.8551819 89.2569633,37.6998249 C84.6329872,23.4478681 81.7540807,22.2554348 79.201278,22.2554348 C77.1046018,22.2554348 75.9707649,22.3030828 75.1132804,23.3283351 C73.7649707,24.9403989 73.0717926,28.7647129 73.0517226,34.6959575 C74.8289864,48.8011952 77.0393827,69.6723677 78.5829343,84.720534 C79.577133,94.4113078 80.3472391,102.198707 80.7176571,105.9783 C80.9831397,108.688328 81.1946885,110.876769 81.3380899,112.388105 C81.4100132,113.147118 81.4647691,113.736023 81.5007222,114.135157 L81.5421124,114.603689 C81.6588718,115.365207 81.358026,116.130814 80.7540171,116.609273 C80.1500082,117.087731 79.3356799,117.205495 78.6208038,116.917767 C77.9059277,116.63004 77.4003892,115.981048 77.2964958,115.21767 C76.3792251,108.799921 71.9032484,79.6891408 67.953639,54.0056115 C64.7432045,33.1256782 61.9629571,15.0460606 61.7024919,13.1075737 C59.9160322,4.2798913 58.05014,4.2798913 53.086262,4.2798913 C48.9664898,4.2798913 46.2364217,11.589141 46.2364217,14.5516304 C46.2364217,19.3042315 46.2364217,31.9286568 47.0792732,42.4578571 C47.5700985,48.5926533 49.9209722,74.8951533 51.8098585,96.0296417 C52.4624856,103.335134 53.0528176,109.938034 53.4771695,114.715296 C53.6895531,117.105187 53.8605465,119.037819 53.9772079,120.373616 C54.0357397,121.044019 54.0804778,121.564796 54.110159,121.917968 C54.120194,122.039594 54.1263303,122.156205 54.1285679,122.267802 C54.1323311,122.293713 54.1352594,122.316704 54.1381834,122.337599 L54.1294027,122.338455 C54.1377638,124.251866 52.9792632,124.679855 52.2543104,124.760103 C51.0940268,124.879623 50.048676,124.055953 49.8938254,122.90019 C49.7600395,121.892075 48.4322151,113.427584 46.7511102,102.711138 C42.5811672,76.1323457 36.2794169,35.9661522 35.9742351,31.9997287 C35.6773673,28.1398573 34.0234391,23.5394022 27.827476,23.5394022 C24.5848387,23.5394022 20.5495208,23.5394022 20.5495208,38.0910326 C20.5495208,40.9005459 21.0850927,48.1299671 22.1415735,59.5782611 C22.1779633,59.8771003 22.2055381,60.1801209 22.2251886,60.4793794 C23.5697395,74.9678986 24.8519911,93.3835518 25.6910836,106.284664 C26.2383516,114.698998 26.6225677,121.163975 26.8031766,124.268566 C26.9344538,126.529303 27.035215,128.341986 27.1008493,129.589592 C27.1342979,130.219455 27.1581268,130.706793 27.1732007,131.036983 C27.2697792,133.210782 26.0309898,133.673879 25.2843102,133.756216 C24.1167711,133.877171 23.0667548,133.042731 22.921278,131.878332 C22.8794682,131.550232 22.6152442,129.854577 22.2494199,127.508161 C20.1347843,113.942074 13.6996805,72.6590941 13.6996805,61.6304348 C13.6996805,61.4749549 13.6954978,61.3223982 13.6879758,61.1744423 L13.62777,60.519084 C13.2105249,57.4851247 11.1025593,57.1561936 10.2128849,57.1561936 C7.26499623,57.1561936 4.28115016,60.0162823 4.28115016,65.482337 L4.28115016,236.677989 C4.28115016,243.379948 9.34327629,251.640891 13.809218,258.929662 C18.344981,266.332119 22.2619808,272.724787 22.2619808,278.620924 L22.2619808,310.720109 L93.3290735,310.720109 L93.3290735,279.048913 C93.3290735,273.149434 97.1110415,267.393314 102.345411,259.426198 C105.535788,254.569942 109.152187,249.065437 112.656959,242.392312 C123.978179,220.834033 129.71885,204.367737 129.71885,193.451087 C129.71885,179.62587 121.090491,156.434624 101.908096,148.161979 Z" id="Path"></path>
                    <path d="M118.734189,155.249714 C118.444458,152.499131 118.13717,149.199352 117.813155,145.718178 C117.03176,137.323908 116.145849,127.809508 115.162511,122.404891 C113.512355,113.330602 98.6035832,52.6368124 93.3290735,36.3790761 C88.9208245,22.7912772 85.2237346,17.9755435 79.201278,17.9755435 C73.9234247,17.9755435 69.4867446,19.0647416 68.8487548,31.6444463 C67.2232534,21.0496268 66.0451023,13.3307914 65.9393279,12.4894247 C65.9326408,12.4371801 65.9242754,12.3853549 65.9138251,12.3339448 C63.7761783,1.71404511 60.38177,0 53.086262,0 C49.7658619,0 46.7318493,2.10692629 44.5431926,5.93249857 C42.7554785,9.05715306 41.9552716,12.5128315 41.9552716,14.5516304 C41.9552716,19.3510449 41.9552716,32.0996128 42.8115016,42.798913 C43.0084345,45.2594226 43.5025905,50.9407386 44.1451783,58.2265859 C42.0384714,44.5522476 40.38623,33.5377975 40.2428115,31.6716236 C39.6453727,23.8996834 35.0042549,19.2595109 27.827476,19.2595109 C19.6172019,19.2595109 16.2683706,24.7155163 16.2683706,38.0910326 C16.2683706,41.0752553 16.7959881,48.2423998 17.8817435,60.0024882 C17.8834174,60.0238021 17.8859261,60.0447008 17.8884349,60.066019 C17.9168646,60.2984028 17.938884,60.5364988 17.954493,60.7803071 C17.9557488,60.8016267 17.9574213,60.8229434 17.9595105,60.8442573 C18.4281766,65.8906771 18.8947578,71.4888135 19.3437734,77.2629047 C18.5230812,70.4317959 17.9808307,64.7454766 17.9808307,61.6304348 C17.9808307,61.3813451 17.973724,61.1380804 17.9607606,60.9023525 C17.9595105,60.8764378 17.9574171,60.8509425 17.9553279,60.8250277 L17.8863457,60.0806476 C17.8838369,60.0530594 17.8809086,60.0250561 17.8771455,59.9974722 C17.4097252,56.4527678 14.8585879,52.8763023 10.2128849,52.8763023 C5.13780831,52.8763023 0,57.2063497 0,65.482337 L0,236.677989 C0,244.586175 5.39701054,253.394226 10.158951,261.165738 C14.3560665,268.015653 17.9808307,273.931447 17.9808307,278.620924 L17.9808307,312.860054 C17.9807875,313.427616 18.2062979,313.971945 18.6077429,314.373272 C19.009188,314.774599 19.5536767,315 20.1214058,315 L95.4696486,315 C96.0373776,315 96.5818663,314.774599 96.9833114,314.373272 C97.3847564,313.971945 97.6102668,313.427616 97.6102236,312.860054 L97.6102236,279.048913 C97.6102236,274.42922 101.097439,269.121988 105.923361,261.775957 C109.168075,256.837364 112.845514,251.240067 116.447284,244.381793 C128.094603,222.203264 134,205.067816 134,193.451087 C134,182.718759 129.168654,166.766551 118.734189,155.249714 Z M112.656959,242.392312 C109.152187,249.065433 105.535788,254.569942 102.345411,259.426198 C97.1110415,267.393314 93.3290735,273.149434 93.3290735,279.048913 L93.3290735,310.720109 L22.2619808,310.720109 L22.2619808,278.620924 C22.2619808,272.724787 18.344981,266.332119 13.809218,258.929662 C9.34327629,251.640891 4.28115016,243.379948 4.28115016,236.677989 L4.28115016,65.482337 C4.28115016,60.0162823 7.26499623,57.1561936 10.2128849,57.1561936 C11.1025593,57.1561936 13.2105463,57.4851247 13.62777,60.519084 L13.6879758,61.1744423 C13.6954978,61.3223982 13.6996805,61.4749549 13.6996805,61.6304348 C13.6996805,72.6590941 20.1347843,113.942074 22.2494371,127.508161 C22.6152613,129.854577 22.8794854,131.550232 22.9212951,131.878332 C23.066772,133.042715 24.1167639,133.877149 25.2842888,133.756216 C26.0309813,133.673879 27.2697578,133.210782 27.1731793,131.036983 C27.1581268,130.706793 27.1342979,130.219455 27.1008279,129.589592 C27.0351893,128.342004 26.9344324,126.529303 26.8031552,124.268566 C26.6225463,121.163975 26.2383302,114.698998 25.6910622,106.284664 C24.8519568,93.3835518 23.5697181,74.9678986 22.2251672,60.4793794 C22.2055167,60.1801209 22.1779247,59.8771003 22.1415521,59.5782611 C21.0850927,48.1299671 20.5495208,40.9005459 20.5495208,38.0910326 C20.5495208,23.5394022 24.5848387,23.5394022 27.827476,23.5394022 C34.0234391,23.5394022 35.6773673,28.1398573 35.9742051,31.9997115 C36.279404,35.9661351 42.5811372,76.1323286 46.7510802,102.711121 C48.4321851,113.427567 49.7600095,121.892058 49.8937955,122.900173 C50.048646,124.055936 51.0939968,124.879606 52.2542804,124.760086 C52.9792332,124.679838 54.1377339,124.251848 54.1293728,122.338437 L54.1381534,122.337581 C54.1352294,122.316687 54.1323011,122.293695 54.128538,122.267785 C54.1264488,122.156191 54.1203124,122.03958 54.110129,121.917951 C54.0804478,121.564779 54.0357098,121.043997 53.9771779,120.373599 C53.8605337,119.037802 53.6895403,117.105166 53.4771396,114.715279 C53.0527877,109.938017 52.4624556,103.335117 51.8098285,96.0296246 C49.9209422,74.8951533 47.5700685,48.5926319 47.0792432,42.4578399 C46.2364217,31.9286568 46.2364217,19.3042315 46.2364217,14.5516304 C46.2364217,11.589141 48.9664898,4.2798913 53.086262,4.2798913 C58.05014,4.2798913 59.9160322,4.2798913 61.7025048,13.1075951 C61.96297,15.046082 64.7432088,33.1256996 67.9536519,54.0056329 C71.9032612,79.6891622 76.379238,108.799943 77.2965086,115.217691 C77.400402,115.98107 77.9059405,116.630061 78.6208167,116.917789 C79.3356928,117.205516 80.150021,117.087752 80.75403,116.609294 C81.3580389,116.130836 81.6588847,115.365229 81.5421252,114.603711 L81.5007351,114.135178 C81.4647734,113.736031 81.4100132,113.147127 81.3381027,112.388127 C81.1946842,110.87679 80.9831526,108.688362 80.7176699,105.978322 C80.3472519,102.19875 79.5771458,94.4113292 78.5829472,84.7205554 C77.0393956,69.6723891 74.8289992,48.8012295 73.0517354,34.6959789 C73.0718054,28.7647343 73.764975,24.9404203 75.1132933,23.3283565 C75.9707649,22.3030828 77.1046018,22.2554348 79.201278,22.2554348 C81.7540807,22.2554348 84.6329872,23.4478681 89.2569633,37.6998249 C94.4980287,53.8551605 109.311476,114.156488 110.950771,123.17059 C111.900652,128.391723 112.776952,137.807484 113.550401,146.114402 C113.695892,147.677983 113.838039,149.205203 113.976842,150.663875 C110.849462,148.028477 107.355199,145.861943 103.603834,144.232337 C92.4732716,139.096467 78.4675445,139.096467 67.2140575,139.096467 C54.7101022,139.096467 51.3738019,144.208096 51.3738019,147.228261 C51.3738019,149.062678 53.5068507,153.361379 59.299782,157.697692 C51.0481177,163.475974 36.0929514,177.40693 34.1120632,180.377354 C33.6878634,181.013468 33.6353488,181.827502 33.9743012,182.512818 C34.3132537,183.198135 34.9921782,183.650618 35.7553304,183.699821 C36.5184827,183.749024 37.2499217,183.387472 37.6741214,182.751359 C39.5019713,180.010388 56.1395098,164.657532 63.1707937,160.251418 C63.4291697,160.402301 63.6913045,160.551931 63.9597155,160.70156 C56.0805583,171.209446 41.9393842,198.683087 40.7315476,203.644667 C40.550665,204.387544 40.7799595,205.170463 41.3330582,205.698504 C41.8861569,206.226546 42.6790309,206.419489 43.4130122,206.204653 C44.1469935,205.989817 44.710573,205.399841 44.8914556,204.656964 C45.9734478,200.21156 60.6648182,171.853099 67.8545561,162.651752 L67.8917679,162.668469 C65.0935525,169.254653 61.3157714,183.372016 61.2417674,185.922403 C61.2192404,186.686897 61.6065429,187.405294 62.2576901,187.80681 C62.9088373,188.208326 63.72483,188.231915 64.398098,187.868686 C65.0713661,187.505458 65.4995471,186.810635 65.5212479,186.046117 C65.5739275,184.220059 69.2806329,170.213447 71.8489035,164.272598 C73.579761,164.904969 75.4442633,165.496519 77.4424102,166.047247 C77.4733501,166.055605 77.5047052,166.063549 77.5364799,166.070654 C80.2462334,166.68942 83.0408197,166.847949 85.8031968,166.539601 C88.9053567,170.690347 98.3728035,182.849582 101.007967,184.023629 C102.074033,184.498555 103.324168,184.032214 103.818447,182.975231 C104.312725,181.918247 103.868946,180.660245 102.820769,180.147066 C101.315675,179.165281 94.4248638,170.850004 90.3983265,165.55782 C92.3224509,164.943653 94.1681315,164.106648 95.8977636,163.063859 C96.9097222,162.455103 97.2372126,161.141964 96.6295715,160.129526 C96.0219303,159.117088 94.708824,158.788017 93.695313,159.394186 C91.630811,160.644689 89.3669232,161.531663 87.0022528,162.016475 C86.5591662,161.951346 86.1068105,162.027082 85.7091271,162.232978 C83.3133186,162.55028 80.8801715,162.439472 78.5231438,161.90572 C76.1982289,161.27446 73.9108797,160.512279 71.6720491,159.622826 C71.6147716,159.596496 71.556655,159.573089 71.4981274,159.55261 C70.4554333,159.130898 69.4746147,158.699425 68.5556715,158.258191 C68.3485413,158.105524 68.1153584,157.991799 67.8675109,157.922571 C66.6680353,157.324893 65.5755886,156.717182 64.582229,156.108633 C64.4306195,155.98241 64.2623631,155.877635 64.0821907,155.797254 C57.9664992,151.924038 55.822161,148.1248 55.656185,147.189827 C55.7281169,146.168735 58.6112019,143.376359 67.2140575,143.376359 C78.0486296,143.376359 91.5325787,143.376359 101.828244,148.126871 L101.908096,148.161966 C121.090491,156.434624 129.71885,179.62587 129.71885,193.451087 C129.71885,204.367737 123.978179,220.834033 112.656959,242.392312 Z" id="Shape" fill="#FFFFFF" fill-rule="nonzero"></path>
                </g>
            </g>
        </g>
    </g>
</svg>